<svg xmlns="http://www.w3.org/2000/svg" xmlns:xlink="http://www.w3.org/1999/xlink" width="500" zoomAndPan="magnify" viewBox="0 0 375 74.999997" height="100" preserveAspectRatio="xMidYMid meet" version="1.0"><defs><g/><clipPath id="4b0c915cd0"><path d="M 55 25 L 70.992188 25 L 70.992188 51 L 55 51 Z M 55 25 " clip-rule="nonzero"/></clipPath><clipPath id="9d4070ff8d"><path d="M 38 20 L 54 20 L 54 55.777344 L 38 55.777344 Z M 38 20 " clip-rule="nonzero"/></clipPath></defs><g fill="#ffffff" fill-opacity="1"><g transform="translate(77.921173, 56.743266)"><g><path d="M 11.78125 -35.953125 L 11.78125 -5.953125 L 27.9375 -5.953125 L 27.9375 0 L 4.671875 0 L 4.671875 -35.953125 Z M 11.78125 -35.953125 "/></g></g></g><g fill="#ffffff" fill-opacity="1"><g transform="translate(107.029088, 56.743266)"><g><path d="M 17.453125 0.515625 C 14.453125 0.515625 11.859375 -0.164062 9.671875 -1.53125 C 7.484375 -2.90625 5.796875 -4.972656 4.609375 -7.734375 C 3.421875 -10.492188 2.828125 -13.90625 2.828125 -17.96875 C 2.828125 -22.070312 3.539062 -25.503906 4.96875 -28.265625 C 6.394531 -31.023438 8.375 -33.082031 10.90625 -34.4375 C 13.4375 -35.789062 16.375 -36.46875 19.71875 -36.46875 C 23.164062 -36.46875 26.097656 -35.828125 28.515625 -34.546875 C 30.941406 -33.265625 32.648438 -31.363281 33.640625 -28.84375 L 28.453125 -25.703125 L 27.828125 -25.71875 C 27.097656 -27.320312 26.0625 -28.492188 24.71875 -29.234375 C 23.382812 -29.972656 21.71875 -30.34375 19.71875 -30.34375 C 16.625 -30.34375 14.253906 -29.363281 12.609375 -27.40625 C 10.972656 -25.445312 10.15625 -22.300781 10.15625 -17.96875 C 10.15625 -13.625 10.921875 -10.46875 12.453125 -8.5 C 13.984375 -6.539062 16.25 -5.5625 19.25 -5.5625 C 21.84375 -5.5625 23.753906 -6.140625 24.984375 -7.296875 C 26.210938 -8.460938 26.828125 -10.203125 26.828125 -12.515625 L 26.828125 -14.0625 L 18.3125 -14.0625 L 18.3125 -19.84375 L 33.890625 -19.84375 L 33.890625 0 L 27.09375 0 L 27.09375 -4.8125 L 26.578125 -4.890625 C 25.835938 -3.171875 24.71875 -1.835938 23.21875 -0.890625 C 21.71875 0.046875 19.796875 0.515625 17.453125 0.515625 Z M 17.453125 0.515625 "/></g></g></g><g fill="#ffffff" fill-opacity="1"><g transform="translate(144.520281, 56.743266)"><g><path d="M 17.15625 0 L 9.21875 0 L 0.984375 -35.953125 L 8.0625 -35.953125 L 13.5 -10.671875 L 14.109375 -10.671875 L 20.5625 -35.953125 L 26.625 -35.953125 L 33.203125 -10.671875 L 33.8125 -10.671875 L 39.265625 -35.953125 L 46.109375 -35.953125 L 37.890625 0 L 29.921875 0 L 23.625 -23.1875 L 23.109375 -23.1875 Z M 17.15625 0 "/></g></g></g><g fill="#ffffff" fill-opacity="1"><g transform="translate(191.574798, 56.743266)"><g><path d="M 26.796875 -12.03125 L 9.375 -12.03125 C 9.5625 -9.664062 10.226562 -7.945312 11.375 -6.875 C 12.53125 -5.800781 14.097656 -5.265625 16.078125 -5.265625 C 17.640625 -5.265625 18.898438 -5.554688 19.859375 -6.140625 C 20.828125 -6.722656 21.609375 -7.601562 22.203125 -8.78125 L 22.71875 -8.78125 L 27.25 -5.875 C 26.363281 -3.976562 25.023438 -2.4375 23.234375 -1.25 C 21.453125 -0.0703125 19.066406 0.515625 16.078125 0.515625 C 13.273438 0.515625 10.851562 -0.015625 8.8125 -1.078125 C 6.769531 -2.148438 5.195312 -3.738281 4.09375 -5.84375 C 2.988281 -7.945312 2.4375 -10.515625 2.4375 -13.546875 C 2.4375 -16.628906 3.015625 -19.226562 4.171875 -21.34375 C 5.335938 -23.457031 6.910156 -25.035156 8.890625 -26.078125 C 10.878906 -27.117188 13.113281 -27.640625 15.59375 -27.640625 C 19.425781 -27.640625 22.363281 -26.625 24.40625 -24.59375 C 26.445312 -22.5625 27.46875 -19.578125 27.46875 -15.640625 C 27.46875 -14.210938 27.414062 -13.101562 27.3125 -12.3125 Z M 20.953125 -16.421875 C 20.890625 -18.492188 20.410156 -20 19.515625 -20.9375 C 18.617188 -21.882812 17.3125 -22.359375 15.59375 -22.359375 C 12.144531 -22.359375 10.117188 -20.378906 9.515625 -16.421875 Z M 20.953125 -16.421875 "/></g></g></g><g fill="#ffffff" fill-opacity="1"><g transform="translate(221.051482, 56.743266)"><g><path d="M 18.953125 0.515625 C 15.492188 0.515625 12.921875 -0.78125 11.234375 -3.375 L 10.71875 -3.265625 L 10.71875 0 L 3.90625 0 L 3.90625 -38.015625 L 10.71875 -38.015625 L 10.71875 -23.921875 L 11.234375 -23.828125 C 12.171875 -25.117188 13.273438 -26.078125 14.546875 -26.703125 C 15.816406 -27.328125 17.335938 -27.640625 19.109375 -27.640625 C 21.304688 -27.640625 23.222656 -27.125 24.859375 -26.09375 C 26.492188 -25.0625 27.769531 -23.488281 28.6875 -21.375 C 29.613281 -19.269531 30.078125 -16.660156 30.078125 -13.546875 C 30.078125 -10.460938 29.597656 -7.867188 28.640625 -5.765625 C 27.691406 -3.660156 26.378906 -2.085938 24.703125 -1.046875 C 23.035156 -0.00390625 21.117188 0.515625 18.953125 0.515625 Z M 16.890625 -5.265625 C 18.890625 -5.265625 20.414062 -5.929688 21.46875 -7.265625 C 22.519531 -8.597656 23.046875 -10.691406 23.046875 -13.546875 C 23.046875 -16.421875 22.519531 -18.523438 21.46875 -19.859375 C 20.414062 -21.191406 18.890625 -21.859375 16.890625 -21.859375 C 14.972656 -21.859375 13.453125 -21.171875 12.328125 -19.796875 C 11.203125 -18.421875 10.640625 -16.335938 10.640625 -13.546875 C 10.640625 -10.765625 11.203125 -8.6875 12.328125 -7.3125 C 13.453125 -5.945312 14.972656 -5.265625 16.890625 -5.265625 Z M 16.890625 -5.265625 "/></g></g></g><g fill="#ffffff" fill-opacity="1"><g transform="translate(253.527453, 56.743266)"><g><path d="M 17.609375 -35.953125 C 23.441406 -35.953125 27.894531 -34.441406 30.96875 -31.421875 C 34.039062 -28.410156 35.578125 -23.925781 35.578125 -17.96875 C 35.578125 -12.039062 34.039062 -7.5625 30.96875 -4.53125 C 27.894531 -1.507812 23.441406 0 17.609375 0 L 4.671875 0 L 4.671875 -35.953125 Z M 17.1875 -5.96875 C 20.894531 -5.96875 23.664062 -6.914062 25.5 -8.8125 C 27.332031 -10.707031 28.25 -13.757812 28.25 -17.96875 C 28.25 -22.1875 27.332031 -25.238281 25.5 -27.125 C 23.664062 -29.019531 20.894531 -29.96875 17.1875 -29.96875 L 11.78125 -29.96875 L 11.78125 -5.96875 Z M 17.1875 -5.96875 "/></g></g></g><g fill="#ffffff" fill-opacity="1"><g transform="translate(291.952854, 56.743266)"><g><path d="M 26.796875 -12.03125 L 9.375 -12.03125 C 9.5625 -9.664062 10.226562 -7.945312 11.375 -6.875 C 12.53125 -5.800781 14.097656 -5.265625 16.078125 -5.265625 C 17.640625 -5.265625 18.898438 -5.554688 19.859375 -6.140625 C 20.828125 -6.722656 21.609375 -7.601562 22.203125 -8.78125 L 22.71875 -8.78125 L 27.25 -5.875 C 26.363281 -3.976562 25.023438 -2.4375 23.234375 -1.25 C 21.453125 -0.0703125 19.066406 0.515625 16.078125 0.515625 C 13.273438 0.515625 10.851562 -0.015625 8.8125 -1.078125 C 6.769531 -2.148438 5.195312 -3.738281 4.09375 -5.84375 C 2.988281 -7.945312 2.4375 -10.515625 2.4375 -13.546875 C 2.4375 -16.628906 3.015625 -19.226562 4.171875 -21.34375 C 5.335938 -23.457031 6.910156 -25.035156 8.890625 -26.078125 C 10.878906 -27.117188 13.113281 -27.640625 15.59375 -27.640625 C 19.425781 -27.640625 22.363281 -26.625 24.40625 -24.59375 C 26.445312 -22.5625 27.46875 -19.578125 27.46875 -15.640625 C 27.46875 -14.210938 27.414062 -13.101562 27.3125 -12.3125 Z M 20.953125 -16.421875 C 20.890625 -18.492188 20.410156 -20 19.515625 -20.9375 C 18.617188 -21.882812 17.3125 -22.359375 15.59375 -22.359375 C 12.144531 -22.359375 10.117188 -20.378906 9.515625 -16.421875 Z M 20.953125 -16.421875 "/></g></g></g><g fill="#ffffff" fill-opacity="1"><g transform="translate(321.429537, 56.743266)"><g><path d="M 18.65625 0 L 10.546875 0 L 0.515625 -27.125 L 7.640625 -27.125 L 14.390625 -7.796875 L 14.953125 -7.796875 L 21.71875 -27.125 L 28.671875 -27.125 Z M 18.65625 0 "/></g></g></g><path fill="#38b6ff" d="M 32.976562 50.566406 C 32.21875 50.566406 31.714844 50.3125 31.207031 49.808594 L 21.113281 39.714844 C 20.105469 38.703125 20.105469 37.191406 21.113281 36.179688 L 31.207031 26.085938 C 32.21875 25.078125 33.730469 25.078125 34.742188 26.085938 C 35.75 27.097656 35.75 28.609375 34.742188 29.621094 L 26.414062 37.949219 L 34.742188 46.277344 C 35.75 47.285156 35.75 48.800781 34.742188 49.808594 C 34.238281 50.3125 33.730469 50.566406 32.976562 50.566406 Z M 32.976562 50.566406 " fill-opacity="1" fill-rule="nonzero"/><g clip-path="url(#4b0c915cd0)"><path fill="#38b6ff" d="M 58.210938 50.566406 C 57.453125 50.566406 56.949219 50.3125 56.445312 49.808594 C 55.4375 48.800781 55.4375 47.285156 56.445312 46.277344 L 64.773438 37.949219 L 56.445312 29.621094 C 55.4375 28.609375 55.4375 27.097656 56.445312 26.085938 C 57.453125 25.078125 58.96875 25.078125 59.976562 26.085938 L 70.074219 36.179688 C 71.082031 37.191406 71.082031 38.703125 70.074219 39.714844 L 59.976562 49.808594 C 59.472656 50.3125 58.96875 50.566406 58.210938 50.566406 Z M 58.210938 50.566406 " fill-opacity="1" fill-rule="nonzero"/></g><g clip-path="url(#9d4070ff8d)"><path fill="#38b6ff" d="M 40.546875 55.613281 C 40.292969 55.613281 40.042969 55.613281 39.789062 55.359375 C 38.527344 54.855469 37.769531 53.59375 38.273438 52.078125 L 48.371094 21.796875 C 48.875 20.535156 50.136719 19.777344 51.648438 20.28125 C 52.910156 20.785156 53.667969 22.046875 53.164062 23.5625 L 43.070312 53.847656 C 42.566406 54.855469 41.554688 55.613281 40.546875 55.613281 Z M 40.546875 55.613281 " fill-opacity="1" fill-rule="nonzero"/></g></svg>