<svg xmlns="http://www.w3.org/2000/svg" xmlns:xlink="http://www.w3.org/1999/xlink" width="500" zoomAndPan="magnify" viewBox="0 0 375 74.999997" height="100" preserveAspectRatio="xMidYMid meet" version="1.0"><defs><g/><clipPath id="13c0d9c478"><path d="M 69 16.304688 L 88 16.304688 L 88 59 L 69 59 Z M 69 16.304688 " clip-rule="nonzero"/></clipPath></defs><g fill="#ffffff" fill-opacity="1"><g transform="translate(123.158996, 55.915033)"><g><path d="M 12.453125 -38 L 12.453125 -6.296875 L 29.53125 -6.296875 L 29.53125 0 L 4.9375 0 L 4.9375 -38 Z M 12.453125 -38 "/></g></g></g><g fill="#ffffff" fill-opacity="1"><g transform="translate(153.934392, 55.915033)"><g><path d="M 18.453125 0.546875 C 15.285156 0.546875 12.546875 -0.175781 10.234375 -1.625 C 7.921875 -3.070312 6.132812 -5.253906 4.875 -8.171875 C 3.613281 -11.097656 2.984375 -14.707031 2.984375 -19 C 2.984375 -23.332031 3.738281 -26.957031 5.25 -29.875 C 6.757812 -32.800781 8.851562 -34.976562 11.53125 -36.40625 C 14.207031 -37.832031 17.3125 -38.546875 20.84375 -38.546875 C 24.488281 -38.546875 27.59375 -37.867188 30.15625 -36.515625 C 32.71875 -35.171875 34.519531 -33.160156 35.5625 -30.484375 L 30.078125 -27.15625 L 29.421875 -27.1875 C 28.640625 -28.882812 27.539062 -30.125 26.125 -30.90625 C 24.71875 -31.6875 22.957031 -32.078125 20.84375 -32.078125 C 17.570312 -32.078125 15.066406 -31.039062 13.328125 -28.96875 C 11.597656 -26.894531 10.734375 -23.570312 10.734375 -19 C 10.734375 -14.40625 11.539062 -11.066406 13.15625 -8.984375 C 14.78125 -6.910156 17.179688 -5.875 20.359375 -5.875 C 23.085938 -5.875 25.101562 -6.488281 26.40625 -7.71875 C 27.707031 -8.945312 28.359375 -10.785156 28.359375 -13.234375 L 28.359375 -14.875 L 19.359375 -14.875 L 19.359375 -20.984375 L 35.8125 -20.984375 L 35.8125 0 L 28.640625 0 L 28.640625 -5.09375 L 28.09375 -5.171875 C 27.3125 -3.347656 26.128906 -1.9375 24.546875 -0.9375 C 22.960938 0.0507812 20.929688 0.546875 18.453125 0.546875 Z M 18.453125 0.546875 "/></g></g></g><g fill="#ffffff" fill-opacity="1"><g transform="translate(193.573315, 55.915033)"><g><path d="M 18.609375 -38 C 24.773438 -38 29.484375 -36.40625 32.734375 -33.21875 C 35.984375 -30.03125 37.609375 -25.289062 37.609375 -19 C 37.609375 -12.726562 35.984375 -7.992188 32.734375 -4.796875 C 29.484375 -1.597656 24.773438 0 18.609375 0 L 4.9375 0 L 4.9375 -38 Z M 18.171875 -6.3125 C 22.085938 -6.3125 25.015625 -7.3125 26.953125 -9.3125 C 28.890625 -11.320312 29.859375 -14.550781 29.859375 -19 C 29.859375 -23.457031 28.890625 -26.6875 26.953125 -28.6875 C 25.015625 -30.6875 22.085938 -31.6875 18.171875 -31.6875 L 12.453125 -31.6875 L 12.453125 -6.3125 Z M 18.171875 -6.3125 "/></g></g></g><g fill="#ffffff" fill-opacity="1"><g transform="translate(234.199961, 55.915033)"><g><path d="M 28.328125 -12.703125 L 9.90625 -12.703125 C 10.113281 -10.210938 10.820312 -8.398438 12.03125 -7.265625 C 13.25 -6.128906 14.90625 -5.5625 17 -5.5625 C 18.644531 -5.5625 19.976562 -5.867188 21 -6.484375 C 22.019531 -7.097656 22.84375 -8.03125 23.46875 -9.28125 L 24.015625 -9.28125 L 28.796875 -6.21875 C 27.859375 -4.207031 26.445312 -2.578125 24.5625 -1.328125 C 22.675781 -0.078125 20.15625 0.546875 17 0.546875 C 14.039062 0.546875 11.476562 -0.015625 9.3125 -1.140625 C 7.15625 -2.265625 5.492188 -3.941406 4.328125 -6.171875 C 3.160156 -8.398438 2.578125 -11.117188 2.578125 -14.328125 C 2.578125 -17.578125 3.191406 -20.320312 4.421875 -22.5625 C 5.648438 -24.800781 7.3125 -26.46875 9.40625 -27.5625 C 11.507812 -28.664062 13.867188 -29.21875 16.484375 -29.21875 C 20.535156 -29.21875 23.640625 -28.140625 25.796875 -25.984375 C 27.953125 -23.835938 29.03125 -20.6875 29.03125 -16.53125 C 29.03125 -15.019531 28.976562 -13.847656 28.875 -13.015625 Z M 22.140625 -17.359375 C 22.078125 -19.546875 21.570312 -21.132812 20.625 -22.125 C 19.675781 -23.125 18.296875 -23.625 16.484375 -23.625 C 12.835938 -23.625 10.695312 -21.535156 10.0625 -17.359375 Z M 22.140625 -17.359375 "/></g></g></g><g fill="#ffffff" fill-opacity="1"><g transform="translate(265.365244, 55.915033)"><g><path d="M 19.734375 0 L 11.15625 0 L 0.546875 -28.671875 L 8.078125 -28.671875 L 15.203125 -8.234375 L 15.796875 -8.234375 L 22.953125 -28.671875 L 30.3125 -28.671875 Z M 19.734375 0 "/></g></g></g><g fill="#ffffff" fill-opacity="1"><g transform="translate(296.192618, 55.915033)"><g><path d="M 7.328125 0.234375 C 6.410156 0.234375 5.597656 0.046875 4.890625 -0.328125 C 4.191406 -0.703125 3.65625 -1.21875 3.28125 -1.875 C 2.914062 -2.53125 2.734375 -3.273438 2.734375 -4.109375 C 2.734375 -4.941406 2.914062 -5.6875 3.28125 -6.34375 C 3.65625 -7 4.191406 -7.515625 4.890625 -7.890625 C 5.597656 -8.273438 6.410156 -8.46875 7.328125 -8.46875 C 8.265625 -8.46875 9.082031 -8.28125 9.78125 -7.90625 C 10.488281 -7.539062 11.023438 -7.023438 11.390625 -6.359375 C 11.765625 -5.703125 11.953125 -4.960938 11.953125 -4.140625 C 11.953125 -2.867188 11.53125 -1.820312 10.6875 -1 C 9.851562 -0.175781 8.734375 0.234375 7.328125 0.234375 Z M 7.328125 0.234375 "/></g></g></g><path fill="#38b6ff" d="M 63.042969 52.71875 C 62.148438 52.71875 61.550781 52.421875 60.953125 51.824219 L 49.015625 39.886719 C 47.820312 38.691406 47.820312 36.898438 49.015625 35.707031 L 60.953125 23.765625 C 62.148438 22.570312 63.941406 22.570312 65.132812 23.765625 C 66.328125 24.960938 66.328125 26.75 65.132812 27.945312 L 55.285156 37.796875 L 65.132812 47.644531 C 66.328125 48.839844 66.328125 50.628906 65.132812 51.824219 C 64.535156 52.421875 63.941406 52.71875 63.042969 52.71875 Z M 63.042969 52.71875 " fill-opacity="1" fill-rule="nonzero"/><path fill="#38b6ff" d="M 92.894531 52.71875 C 92 52.71875 91.402344 52.421875 90.804688 51.824219 C 89.609375 50.628906 89.609375 48.839844 90.804688 47.644531 L 100.65625 37.796875 L 90.804688 27.945312 C 89.609375 26.75 89.609375 24.960938 90.804688 23.765625 C 92 22.570312 93.789062 22.570312 94.984375 23.765625 L 106.921875 35.707031 C 108.117188 36.898438 108.117188 38.691406 106.921875 39.886719 L 94.984375 51.824219 C 94.386719 52.421875 93.789062 52.71875 92.894531 52.71875 Z M 92.894531 52.71875 " fill-opacity="1" fill-rule="nonzero"/><g clip-path="url(#13c0d9c478)"><path fill="#38b6ff" d="M 72 58.691406 C 71.699219 58.691406 71.402344 58.691406 71.105469 58.390625 C 69.613281 57.792969 68.714844 56.300781 69.3125 54.511719 L 81.253906 18.691406 C 81.851562 17.199219 83.34375 16.304688 85.132812 16.902344 C 86.625 17.496094 87.519531 18.988281 86.925781 20.78125 L 74.984375 56.601562 C 74.386719 57.792969 73.195312 58.691406 72 58.691406 Z M 72 58.691406 " fill-opacity="1" fill-rule="nonzero"/></g></svg>